<?xml version="1.0" encoding="UTF-8" standalone="no"?>
<!DOCTYPE svg PUBLIC "-//W3C//DTD SVG 1.1//EN"
 "http://www.w3.org/Graphics/SVG/1.1/DTD/svg11.dtd">
<!-- Generated by graphviz version 2.47.3 (20210619.1520)
 -->
<!-- Pages: 1 -->
<svg width="1391pt" height="156pt"
 viewBox="0.00 0.00 1390.85 156.00" xmlns="http://www.w3.org/2000/svg" xmlns:xlink="http://www.w3.org/1999/xlink">
<g id="graph0" class="graph" transform="scale(1 1) rotate(0) translate(4 152)">
<polygon fill="white" stroke="transparent" points="-4,4 -4,-152 1386.85,-152 1386.85,4 -4,4"/>
<!-- foarte -->
<g id="node1" class="node">
<title>foarte</title>
<ellipse fill="none" stroke="black" cx="31.85" cy="-46" rx="31.7" ry="18"/>
<text text-anchor="middle" x="31.85" y="-42.3" font-family="Times New Roman,serif" font-size="14.00">foarte</text>
</g>
<!-- bun -->
<g id="node2" class="node">
<title>bun</title>
<ellipse fill="none" stroke="black" cx="126.69" cy="-46" rx="27" ry="18"/>
<text text-anchor="middle" x="126.69" y="-42.3" font-family="Times New Roman,serif" font-size="14.00">bun</text>
</g>
<!-- foarte&#45;&gt;bun -->
<g id="edge1" class="edge">
<title>foarte&#45;&gt;bun</title>
<path fill="none" stroke="black" d="M61.72,-39.7C71.02,-39.2 81.43,-39.12 91.1,-39.45"/>
<polygon fill="black" stroke="black" points="91.05,-42.95 101.22,-39.97 91.42,-35.96 91.05,-42.95"/>
</g>
<!-- foarte&#45;&gt;bun -->
<!-- Unul -->
<g id="node3" class="node">
<title>Unul</title>
<ellipse fill="none" stroke="black" cx="497.34" cy="-30" rx="27.9" ry="18"/>
<text text-anchor="middle" x="497.34" y="-26.3" font-family="Times New Roman,serif" font-size="14.00">Unul</text>
</g>
<!-- bun&#45;&gt;Unul -->
<g id="edge2" class="edge">
<title>bun&#45;&gt;Unul</title>
<path fill="none" stroke="black" d="M153.91,-44.86C218.27,-42.07 384.23,-34.87 458.93,-31.62"/>
<polygon fill="black" stroke="black" points="459.42,-35.11 469.26,-31.18 459.12,-28.11 459.42,-35.11"/>
</g>
<!-- cu -->
<g id="node4" class="node">
<title>cu</title>
<ellipse fill="none" stroke="black" cx="216.69" cy="-84" rx="27" ry="18"/>
<text text-anchor="middle" x="216.69" y="-80.3" font-family="Times New Roman,serif" font-size="14.00">cu</text>
</g>
<!-- bun&#45;&gt;cu -->
<!-- Unul&#45;&gt;foarte -->
<!-- vapor -->
<g id="node5" class="node">
<title>vapor</title>
<ellipse fill="none" stroke="black" cx="401.54" cy="-84" rx="31.7" ry="18"/>
<text text-anchor="middle" x="401.54" y="-80.3" font-family="Times New Roman,serif" font-size="14.00">vapor</text>
</g>
<!-- cu&#45;&gt;vapor -->
<g id="edge3" class="edge">
<title>cu&#45;&gt;vapor</title>
<path fill="none" stroke="black" d="M237.94,-95.34C249.72,-101.29 265.1,-107.96 279.69,-111 303.19,-115.89 310.14,-115.58 333.69,-111 345.26,-108.75 357.37,-104.5 368.05,-100.03"/>
<polygon fill="black" stroke="black" points="369.66,-103.15 377.4,-95.91 366.84,-96.74 369.66,-103.15"/>
</g>
<!-- un -->
<g id="node6" class="node">
<title>un</title>
<ellipse fill="none" stroke="black" cx="306.69" cy="-84" rx="27" ry="18"/>
<text text-anchor="middle" x="306.69" y="-80.3" font-family="Times New Roman,serif" font-size="14.00">un</text>
</g>
<!-- cu&#45;&gt;un -->
<!-- vapor&#45;&gt;Unul -->
<g id="edge5" class="edge">
<title>vapor&#45;&gt;Unul</title>
<path fill="none" stroke="black" d="M424.77,-71.2C437.36,-63.96 453.26,-54.8 466.88,-46.96"/>
<polygon fill="black" stroke="black" points="468.95,-49.81 475.87,-41.78 465.46,-43.74 468.95,-49.81"/>
</g>
<!-- plin -->
<g id="node7" class="node">
<title>plin</title>
<ellipse fill="none" stroke="black" cx="497.34" cy="-84" rx="27" ry="18"/>
<text text-anchor="middle" x="497.34" y="-80.3" font-family="Times New Roman,serif" font-size="14.00">plin</text>
</g>
<!-- vapor&#45;&gt;plin -->
<!-- un&#45;&gt;vapor -->
<g id="edge4" class="edge">
<title>un&#45;&gt;vapor</title>
<path fill="none" stroke="black" d="M332.58,-77.94C341.51,-77.32 351.8,-77.12 361.64,-77.33"/>
<polygon fill="black" stroke="black" points="361.52,-80.83 371.64,-77.7 361.78,-73.83 361.52,-80.83"/>
</g>
<!-- un&#45;&gt;vapor -->
<!-- plin&#45;&gt;vapor -->
<g id="edge6" class="edge">
<title>plin&#45;&gt;vapor</title>
<path fill="none" stroke="black" d="M471.79,-90.02C462.52,-90.67 451.73,-90.89 441.46,-90.66"/>
<polygon fill="black" stroke="black" points="441.57,-87.16 431.45,-90.29 441.31,-94.16 441.57,-87.16"/>
</g>
<!-- de -->
<g id="node8" class="node">
<title>de</title>
<ellipse fill="none" stroke="black" cx="588.28" cy="-130" rx="27" ry="18"/>
<text text-anchor="middle" x="588.28" y="-126.3" font-family="Times New Roman,serif" font-size="14.00">de</text>
</g>
<!-- plin&#45;&gt;de -->
<!-- refugiați -->
<g id="node9" class="node">
<title>refugiați</title>
<ellipse fill="none" stroke="black" cx="690.93" cy="-120" rx="39.79" ry="18"/>
<text text-anchor="middle" x="690.93" y="-116.3" font-family="Times New Roman,serif" font-size="14.00">refugiați</text>
</g>
<!-- de&#45;&gt;refugiați -->
<g id="edge7" class="edge">
<title>de&#45;&gt;refugiați</title>
<path fill="none" stroke="black" d="M612.63,-121.88C621.34,-120.33 631.58,-119 641.71,-118.05"/>
<polygon fill="black" stroke="black" points="642.06,-121.53 651.74,-117.22 641.48,-114.55 642.06,-121.53"/>
</g>
<!-- de&#45;&gt;refugiați -->
<!-- refugiați&#45;&gt;plin -->
<g id="edge8" class="edge">
<title>refugiați&#45;&gt;plin</title>
<path fill="none" stroke="black" d="M655.46,-111.67C642.86,-108.76 628.46,-105.57 615.28,-103 588.15,-97.71 557.27,-92.74 534.05,-89.21"/>
<polygon fill="black" stroke="black" points="534.38,-85.72 523.97,-87.69 533.34,-92.64 534.38,-85.72"/>
</g>
<!-- , -->
<g id="node14" class="node">
<title>,</title>
<ellipse fill="none" stroke="black" cx="793.58" cy="-111" rx="27" ry="18"/>
<text text-anchor="middle" x="793.58" y="-107.3" font-family="Times New Roman,serif" font-size="14.00">,</text>
</g>
<!-- refugiați&#45;&gt;, -->
<!-- bombardat -->
<g id="node10" class="node">
<title>bombardat</title>
<ellipse fill="none" stroke="black" cx="906.62" cy="-69" rx="50.09" ry="18"/>
<text text-anchor="middle" x="906.62" y="-65.3" font-family="Times New Roman,serif" font-size="14.00">bombardat</text>
</g>
<!-- bombardat&#45;&gt;plin -->
<g id="edge9" class="edge">
<title>bombardat&#45;&gt;plin</title>
<path fill="none" stroke="black" d="M856.67,-70.8C773.82,-73.85 607.85,-79.97 534.55,-82.67"/>
<polygon fill="black" stroke="black" points="534.3,-79.17 524.43,-83.04 534.56,-86.17 534.3,-79.17"/>
</g>
<!-- undeva -->
<g id="node11" class="node">
<title>undeva</title>
<ellipse fill="none" stroke="black" cx="1029.06" cy="-69" rx="36.29" ry="18"/>
<text text-anchor="middle" x="1029.06" y="-65.3" font-family="Times New Roman,serif" font-size="14.00">undeva</text>
</g>
<!-- bombardat&#45;&gt;undeva -->
<!-- undeva&#45;&gt;bombardat -->
<g id="edge10" class="edge">
<title>undeva&#45;&gt;bombardat</title>
<path fill="none" stroke="black" d="M994.67,-75.12C985.02,-75.6 974.22,-75.81 963.59,-75.74"/>
<polygon fill="black" stroke="black" points="963.55,-72.23 953.5,-75.58 963.44,-79.23 963.55,-72.23"/>
</g>
<!-- în -->
<g id="node12" class="node">
<title>în</title>
<ellipse fill="none" stroke="black" cx="1128.46" cy="-69" rx="27" ry="18"/>
<text text-anchor="middle" x="1128.46" y="-65.3" font-family="Times New Roman,serif" font-size="14.00">în</text>
</g>
<!-- undeva&#45;&gt;în -->
<!-- Mediterana -->
<g id="node13" class="node">
<title>Mediterana</title>
<ellipse fill="none" stroke="black" cx="1242.16" cy="-69" rx="50.89" ry="18"/>
<text text-anchor="middle" x="1242.16" y="-65.3" font-family="Times New Roman,serif" font-size="14.00">Mediterana</text>
</g>
<!-- în&#45;&gt;Mediterana -->
<g id="edge11" class="edge">
<title>în&#45;&gt;Mediterana</title>
<path fill="none" stroke="black" d="M1154.25,-63.28C1163.31,-62.61 1173.97,-62.26 1184.66,-62.25"/>
<polygon fill="black" stroke="black" points="1184.83,-65.75 1194.86,-62.34 1184.89,-58.75 1184.83,-65.75"/>
</g>
<!-- în&#45;&gt;Mediterana -->
<!-- Mediterana&#45;&gt;bombardat -->
<g id="edge12" class="edge">
<title>Mediterana&#45;&gt;bombardat</title>
<path fill="none" stroke="black" d="M1207.53,-55.79C1191.95,-50.35 1173.04,-44.7 1155.46,-42 1083.95,-31 1064.17,-30.92 992.67,-42 978.76,-44.15 964.01,-48.18 950.78,-52.48"/>
<polygon fill="black" stroke="black" points="949.34,-49.27 940.99,-55.79 951.58,-55.9 949.34,-49.27"/>
</g>
<!-- . -->
<g id="node15" class="node">
<title>.</title>
<ellipse fill="none" stroke="black" cx="1355.85" cy="-69" rx="27" ry="18"/>
<text text-anchor="middle" x="1355.85" y="-65.3" font-family="Times New Roman,serif" font-size="14.00">.</text>
</g>
<!-- Mediterana&#45;&gt;. -->
<!-- ,&#45;&gt;bombardat -->
</g>
</svg>
