<?xml version="1.0" encoding="UTF-8" standalone="no"?>
<!DOCTYPE svg PUBLIC "-//W3C//DTD SVG 1.1//EN"
 "http://www.w3.org/Graphics/SVG/1.1/DTD/svg11.dtd">
<!-- Generated by graphviz version 2.47.3 (20210619.1520)
 -->
<!-- Pages: 1 -->
<svg width="1151pt" height="80pt"
 viewBox="0.00 0.00 1150.80 79.98" xmlns="http://www.w3.org/2000/svg" xmlns:xlink="http://www.w3.org/1999/xlink">
<g id="graph0" class="graph" transform="scale(1 1) rotate(0) translate(4 75.98)">
<polygon fill="white" stroke="transparent" points="-4,4 -4,-75.98 1146.8,-75.98 1146.8,4 -4,4"/>
<!-- Textul -->
<g id="node1" class="node">
<title>Textul</title>
<ellipse fill="none" stroke="black" cx="33.8" cy="-18" rx="33.6" ry="18"/>
<text text-anchor="middle" x="33.8" y="-14.3" font-family="Times New Roman,serif" font-size="14.00">Textul</text>
</g>
<!-- de -->
<g id="node2" class="node">
<title>de</title>
<ellipse fill="none" stroke="black" cx="112.8" cy="-18" rx="27" ry="18"/>
<text text-anchor="middle" x="112.8" y="-14.3" font-family="Times New Roman,serif" font-size="14.00">de</text>
</g>
<!-- Textul&#45;&gt;de -->
<g id="edge1" class="edge">
<title>Textul&#45;&gt;de</title>
<path fill="none" stroke="black" d="M67.74,-18C70.36,-18 72.98,-18 75.6,-18"/>
<polygon fill="black" stroke="black" points="75.69,-21.5 85.69,-18 75.69,-14.5 75.69,-21.5"/>
</g>
<!-- suna -->
<g id="node4" class="node">
<title>suna</title>
<ellipse fill="none" stroke="black" cx="290.8" cy="-18" rx="27.1" ry="18"/>
<text text-anchor="middle" x="290.8" y="-14.3" font-family="Times New Roman,serif" font-size="14.00">suna</text>
</g>
<!-- Textul&#45;&gt;suna -->
<g id="edge14" class="edge">
<title>Textul&#45;&gt;suna</title>
<path fill="none" stroke="black" d="M50.65,-33.61C60.19,-41.37 72.8,-49.94 85.8,-54 153.67,-75.2 178.69,-77.54 245.8,-54 254.03,-51.11 261.87,-46.02 268.64,-40.55"/>
<polygon fill="black" stroke="black" points="271.38,-42.8 276.58,-33.57 266.76,-37.54 271.38,-42.8"/>
</g>
<!-- dedesubt -->
<g id="node3" class="node">
<title>dedesubt</title>
<ellipse fill="none" stroke="black" cx="201.8" cy="-18" rx="44.39" ry="18"/>
<text text-anchor="middle" x="201.8" y="-14.3" font-family="Times New Roman,serif" font-size="14.00">dedesubt</text>
</g>
<!-- de&#45;&gt;dedesubt -->
<g id="edge2" class="edge">
<title>de&#45;&gt;dedesubt</title>
<path fill="none" stroke="black" d="M135.39,-7.77C143.42,-5.37 151.44,-4.29 159.47,-4.53"/>
<polygon fill="black" stroke="black" points="159.34,-8.04 169.63,-5.54 160.03,-1.07 159.34,-8.04"/>
</g>
<!-- de&#45;&gt;dedesubt -->
<g id="edge15" class="edge">
<title>de&#45;&gt;dedesubt</title>
<path fill="none" stroke="black" d="M135.39,-28.23C143.42,-30.63 151.44,-31.71 159.47,-31.47"/>
<polygon fill="black" stroke="black" points="160.03,-34.93 169.63,-30.46 159.34,-27.96 160.03,-34.93"/>
</g>
<!-- dedesubt&#45;&gt;Textul -->
<g id="edge16" class="edge">
<title>dedesubt&#45;&gt;Textul</title>
<path fill="none" stroke="black" d="M180.67,-34.02C169.23,-41.69 154.46,-50.05 139.8,-54 116.62,-60.24 108.71,-61.16 85.8,-54 76.15,-50.99 66.72,-45.49 58.6,-39.68"/>
<polygon fill="black" stroke="black" points="60.72,-36.9 50.65,-33.61 56.47,-42.46 60.72,-36.9"/>
</g>
<!-- dedesubt&#45;&gt;suna -->
<g id="edge3" class="edge">
<title>dedesubt&#45;&gt;suna</title>
<path fill="none" stroke="black" d="M246.3,-18C248.6,-18 250.91,-18 253.22,-18"/>
<polygon fill="black" stroke="black" points="253.33,-21.5 263.33,-18 253.33,-14.5 253.33,-21.5"/>
</g>
<g id="node5" class="node">
<title></title>
<ellipse fill="none" stroke="black" cx="362.8" cy="-18" rx="27" ry="18"/>
</g>
<!-- suna&#45;&gt; -->
<g id="edge4" class="edge">
<title>suna&#45;&gt;</title>
<path fill="none" stroke="black" d="M312.17,-6.73C318.57,-4.78 324.98,-4.11 331.38,-4.72"/>
<polygon fill="black" stroke="black" points="330.95,-8.2 341.44,-6.73 332.32,-1.34 330.95,-8.2"/>
</g>
<!-- . -->
<g id="node14" class="node">
<title>.</title>
<ellipse fill="none" stroke="black" cx="1115.8" cy="-18" rx="27" ry="18"/>
<text text-anchor="middle" x="1115.8" y="-14.3" font-family="Times New Roman,serif" font-size="14.00">.</text>
</g>
<!-- suna&#45;&gt;. -->
<g id="edge17" class="edge">
<title>suna&#45;&gt;.</title>
<path fill="none" stroke="black" d="M306.64,-32.89C314.01,-38.81 323.24,-44.94 332.8,-48 372,-60.56 1034.59,-60.56 1073.8,-48 1080.07,-45.99 1086.2,-42.66 1091.76,-38.94"/>
<polygon fill="black" stroke="black" points="1093.98,-41.64 1099.95,-32.89 1089.83,-36.01 1093.98,-41.64"/>
</g>
<!-- &#45;&gt;suna -->
<g id="edge18" class="edge">
<title>&#45;&gt;suna</title>
<path fill="none" stroke="black" d="M341.44,-29.27C335.04,-31.22 328.64,-31.89 322.23,-31.28"/>
<polygon fill="black" stroke="black" points="322.66,-27.8 312.17,-29.27 321.29,-34.66 322.66,-27.8"/>
</g>
<!-- FRATELE -->
<g id="node6" class="node">
<title>FRATELE</title>
<ellipse fill="none" stroke="black" cx="458.8" cy="-18" rx="50.89" ry="18"/>
<text text-anchor="middle" x="458.8" y="-14.3" font-family="Times New Roman,serif" font-size="14.00">FRATELE</text>
</g>
<!-- &#45;&gt;FRATELE -->
<g id="edge5" class="edge">
<title>&#45;&gt;FRATELE</title>
<path fill="none" stroke="black" d="M389.8,-18C392.43,-18 395.06,-18 397.7,-18"/>
<polygon fill="black" stroke="black" points="397.86,-21.5 407.86,-18 397.86,-14.5 397.86,-21.5"/>
</g>
<!-- CEL -->
<g id="node7" class="node">
<title>CEL</title>
<ellipse fill="none" stroke="black" cx="555.8" cy="-18" rx="27.9" ry="18"/>
<text text-anchor="middle" x="555.8" y="-14.3" font-family="Times New Roman,serif" font-size="14.00">CEL</text>
</g>
<!-- FRATELE&#45;&gt;CEL -->
<g id="edge6" class="edge">
<title>FRATELE&#45;&gt;CEL</title>
<path fill="none" stroke="black" d="M509.57,-18C512.2,-18 514.84,-18 517.47,-18"/>
<polygon fill="black" stroke="black" points="517.63,-21.5 527.63,-18 517.63,-14.5 517.63,-21.5"/>
</g>
<!-- ESTE -->
<g id="node9" class="node">
<title>ESTE</title>
<ellipse fill="none" stroke="black" cx="724.8" cy="-18" rx="32.49" ry="18"/>
<text text-anchor="middle" x="724.8" y="-14.3" font-family="Times New Roman,serif" font-size="14.00">ESTE</text>
</g>
<!-- FRATELE&#45;&gt;ESTE -->
<g id="edge19" class="edge">
<title>FRATELE&#45;&gt;ESTE</title>
<path fill="none" stroke="black" d="M482.56,-34.04C495.37,-41.71 511.79,-50.07 527.8,-54 590.82,-69.45 611.95,-73.63 673.8,-54 683.2,-51.01 692.37,-45.6 700.28,-39.86"/>
<polygon fill="black" stroke="black" points="702.58,-42.5 708.32,-33.6 698.28,-36.98 702.58,-42.5"/>
</g>
<!-- MARE -->
<g id="node8" class="node">
<title>MARE</title>
<ellipse fill="none" stroke="black" cx="637.8" cy="-18" rx="36.29" ry="18"/>
<text text-anchor="middle" x="637.8" y="-14.3" font-family="Times New Roman,serif" font-size="14.00">MARE</text>
</g>
<!-- CEL&#45;&gt;MARE -->
<g id="edge7" class="edge">
<title>CEL&#45;&gt;MARE</title>
<path fill="none" stroke="black" d="M578.54,-7.18C585.86,-5.03 593.18,-4.17 600.5,-4.61"/>
<polygon fill="black" stroke="black" points="600.09,-8.09 610.48,-6 601.06,-1.15 600.09,-8.09"/>
</g>
<!-- CEL&#45;&gt;MARE -->
<g id="edge20" class="edge">
<title>CEL&#45;&gt;MARE</title>
<path fill="none" stroke="black" d="M578.54,-28.82C585.86,-30.97 593.18,-31.83 600.5,-31.39"/>
<polygon fill="black" stroke="black" points="601.06,-34.85 610.48,-30 600.09,-27.91 601.06,-34.85"/>
</g>
<!-- MARE&#45;&gt;FRATELE -->
<g id="edge21" class="edge">
<title>MARE&#45;&gt;FRATELE</title>
<path fill="none" stroke="black" d="M619.71,-33.99C609.83,-41.65 596.95,-50.02 583.8,-54 559.98,-61.21 551.97,-59.93 527.8,-54 515.29,-50.93 502.53,-45.16 491.44,-39.12"/>
<polygon fill="black" stroke="black" points="492.98,-35.97 482.56,-34.04 489.5,-42.04 492.98,-35.97"/>
</g>
<!-- MARE&#45;&gt;ESTE -->
<g id="edge8" class="edge">
<title>MARE&#45;&gt;ESTE</title>
<path fill="none" stroke="black" d="M674.5,-18C676.99,-18 679.47,-18 681.96,-18"/>
<polygon fill="black" stroke="black" points="682.18,-21.5 692.18,-18 682.18,-14.5 682.18,-21.5"/>
</g>
<!-- ESTE&#45;&gt;suna -->
<g id="edge22" class="edge">
<title>ESTE&#45;&gt;suna</title>
<path fill="none" stroke="black" d="M708.32,-33.6C698.97,-41.36 686.61,-49.93 673.8,-54 602.21,-76.72 406.67,-78.86 335.8,-54 327.57,-51.11 319.72,-46.02 312.96,-40.55"/>
<polygon fill="black" stroke="black" points="314.84,-37.54 305.01,-33.57 310.21,-42.8 314.84,-37.54"/>
</g>
<!-- CU -->
<g id="node10" class="node">
<title>CU</title>
<ellipse fill="none" stroke="black" cx="801.8" cy="-18" rx="27" ry="18"/>
<text text-anchor="middle" x="801.8" y="-14.3" font-family="Times New Roman,serif" font-size="14.00">CU</text>
</g>
<!-- ESTE&#45;&gt;CU -->
<g id="edge9" class="edge">
<title>ESTE&#45;&gt;CU</title>
<path fill="none" stroke="black" d="M749.46,-6.24C756.33,-4.51 763.2,-4.07 770.06,-4.92"/>
<polygon fill="black" stroke="black" points="769.61,-8.4 780.13,-7.08 771.09,-1.56 769.61,-8.4"/>
</g>
<!-- CU&#45;&gt;ESTE -->
<g id="edge23" class="edge">
<title>CU&#45;&gt;ESTE</title>
<path fill="none" stroke="black" d="M780.13,-28.92C773.26,-31.03 766.39,-31.84 759.52,-31.37"/>
<polygon fill="black" stroke="black" points="759.89,-27.88 749.46,-29.76 758.78,-34.8 759.89,-27.88"/>
</g>
<!-- OCHII -->
<g id="node11" class="node">
<title>OCHII</title>
<ellipse fill="none" stroke="black" cx="882.8" cy="-18" rx="36.29" ry="18"/>
<text text-anchor="middle" x="882.8" y="-14.3" font-family="Times New Roman,serif" font-size="14.00">OCHII</text>
</g>
<!-- CU&#45;&gt;OCHII -->
<g id="edge10" class="edge">
<title>CU&#45;&gt;OCHII</title>
<path fill="none" stroke="black" d="M829.01,-18C831.34,-18 833.67,-18 836.01,-18"/>
<polygon fill="black" stroke="black" points="836.24,-21.5 846.24,-18 836.24,-14.5 836.24,-21.5"/>
</g>
<!-- OCHII&#45;&gt;ESTE -->
<g id="edge24" class="edge">
<title>OCHII&#45;&gt;ESTE</title>
<path fill="none" stroke="black" d="M864.71,-33.99C854.83,-41.65 841.95,-50.02 828.8,-54 805.83,-60.95 797.64,-61.37 774.8,-54 765.87,-51.12 757.19,-45.99 749.64,-40.49"/>
<polygon fill="black" stroke="black" points="751.37,-37.4 741.35,-33.97 747.05,-42.9 751.37,-37.4"/>
</g>
<!-- PE -->
<g id="node12" class="node">
<title>PE</title>
<ellipse fill="none" stroke="black" cx="963.8" cy="-18" rx="27" ry="18"/>
<text text-anchor="middle" x="963.8" y="-14.3" font-family="Times New Roman,serif" font-size="14.00">PE</text>
</g>
<!-- OCHII&#45;&gt;PE -->
<g id="edge11" class="edge">
<title>OCHII&#45;&gt;PE</title>
<path fill="none" stroke="black" d="M919.5,-18C921.8,-18 924.09,-18 926.39,-18"/>
<polygon fill="black" stroke="black" points="926.46,-21.5 936.46,-18 926.46,-14.5 926.46,-21.5"/>
</g>
<!-- TINE -->
<g id="node13" class="node">
<title>TINE</title>
<ellipse fill="none" stroke="black" cx="1039.8" cy="-18" rx="31.4" ry="18"/>
<text text-anchor="middle" x="1039.8" y="-14.3" font-family="Times New Roman,serif" font-size="14.00">TINE</text>
</g>
<!-- PE&#45;&gt;TINE -->
<g id="edge12" class="edge">
<title>PE&#45;&gt;TINE</title>
<path fill="none" stroke="black" d="M985.47,-6.99C992.22,-4.93 998.97,-4.15 1005.72,-4.64"/>
<polygon fill="black" stroke="black" points="1005.17,-8.1 1015.6,-6.28 1006.31,-1.19 1005.17,-8.1"/>
</g>
<!-- PE&#45;&gt;TINE -->
<g id="edge25" class="edge">
<title>PE&#45;&gt;TINE</title>
<path fill="none" stroke="black" d="M985.47,-29.01C992.22,-31.07 998.97,-31.85 1005.72,-31.36"/>
<polygon fill="black" stroke="black" points="1006.31,-34.81 1015.6,-29.72 1005.17,-27.9 1006.31,-34.81"/>
</g>
<!-- TINE&#45;&gt;ESTE -->
<g id="edge26" class="edge">
<title>TINE&#45;&gt;ESTE</title>
<path fill="none" stroke="black" d="M1024.07,-33.59C1015.12,-41.35 1003.24,-49.92 990.8,-54 945.19,-68.95 820.48,-68.73 774.8,-54 765.87,-51.12 757.19,-45.99 749.64,-40.49"/>
<polygon fill="black" stroke="black" points="751.37,-37.4 741.35,-33.97 747.05,-42.9 751.37,-37.4"/>
</g>
<!-- TINE&#45;&gt;. -->
<g id="edge13" class="edge">
<title>TINE&#45;&gt;.</title>
<path fill="none" stroke="black" d="M1071.27,-18C1073.71,-18 1076.16,-18 1078.6,-18"/>
<polygon fill="black" stroke="black" points="1078.66,-21.5 1088.66,-18 1078.66,-14.5 1078.66,-21.5"/>
</g>
<!-- .&#45;&gt;suna -->
<g id="edge27" class="edge">
<title>.&#45;&gt;suna</title>
<path fill="none" stroke="black" d="M1102.95,-33.97C1094.19,-43.52 1081.69,-54.78 1067.8,-60 1029.88,-74.24 376.71,-74.24 338.8,-60 328.38,-56.09 318.74,-48.77 310.88,-41.33"/>
<polygon fill="black" stroke="black" points="313.15,-38.65 303.65,-33.97 308.16,-43.55 313.15,-38.65"/>
</g>
</g>
</svg>
